<?xml version="1.0" standalone="no"?>
<!DOCTYPE svg PUBLIC "-//W3C//DTD SVG 20010904//EN"
 "http://www.w3.org/TR/2001/REC-SVG-20010904/DTD/svg10.dtd">
<svg version="1.0" xmlns="http://www.w3.org/2000/svg"
 width="1024.000000pt" height="1024.000000pt" viewBox="0 0 1024.000000 1024.000000"
 preserveAspectRatio="xMidYMid meet">
<metadata>
Created by potrace 1.14, written by Peter Selinger 2001-2017
</metadata>
<g transform="translate(0.000000,1024.000000) scale(0.100000,-0.100000)"
fill="#000000" stroke="none">
<path d="M0 5120 l0 -5120 5120 0 5120 0 0 5120 0 5120 -3840 0 c-3407 0
-3840 -2 -3840 -15 0 -11 -11 -15 -40 -15 -29 0 -40 4 -40 15 0 13 -144 15
-1240 15 l-1240 0 0 -5120z m4480 3775 c0 -11 -11 -15 -40 -15 -29 0 -40 4
-40 15 0 11 11 15 40 15 29 0 40 -4 40 -15z m320 0 c0 -11 11 -15 40 -15 39 0
40 -1 40 -35 0 -34 -1 -35 -40 -35 -31 0 -40 -4 -40 -17 0 -15 -2 -16 -10 -3
-5 8 -10 10 -10 4 0 -9 -11 -9 -37 -3 -21 5 -53 6 -70 3 l-33 -6 0 61 0 61 80
0 c64 0 80 -3 80 -15z m-320 -80 c0 -9 10 -15 23 -16 21 -1 21 -1 -3 -9 -23
-7 -22 -8 10 -10 19 -1 29 -4 22 -7 -6 -2 -9 -9 -6 -15 5 -7 -3 -9 -22 -5 -16
3 -23 4 -15 0 11 -5 11 -7 0 -15 -10 -7 -1 -8 26 -4 22 4 76 11 120 17 95 13
116 24 30 16 -65 -6 -56 6 12 17 24 3 44 2 48 -4 3 -5 26 -10 51 -10 26 0 43
4 39 10 -11 17 759 6 915 -13 274 -35 645 -135 823 -222 50 -25 77 -33 98 -28
17 3 29 1 29 -5 0 -5 -10 -8 -22 -5 -13 3 -21 4 -18 1 11 -13 160 -97 160 -91
0 4 10 -3 23 -14 12 -11 41 -31 65 -43 23 -13 42 -28 42 -33 0 -5 7 -6 16 -3
8 3 13 2 10 -3 -3 -4 15 -22 39 -40 24 -17 52 -39 61 -48 13 -14 17 -14 26 -2
7 10 8 8 3 -8 -4 -14 -2 -23 4 -23 14 0 207 -192 246 -245 17 -22 38 -49 49
-60 15 -17 94 -132 143 -210 42 -66 138 -271 186 -395 48 -127 124 -397 156
-560 18 -88 51 -351 51 -402 l0 -48 -758 0 -759 0 5 28 c6 41 -24 203 -54 291
-113 335 -330 563 -644 675 -117 43 -204 58 -361 63 -231 9 -391 -24 -555
-113 -177 -95 -287 -245 -327 -444 -40 -195 -42 -269 -42 -1705 0 -1276 1
-1399 18 -1505 32 -210 72 -320 158 -431 24 -31 60 -69 79 -85 19 -16 41 -35
49 -42 31 -30 181 -96 270 -119 198 -51 496 -40 685 26 108 38 267 119 341
174 62 46 199 176 225 214 8 12 35 50 59 85 96 137 182 353 217 543 17 95 40
435 31 459 -6 15 -42 17 -423 16 l-416 -2 -1 588 -2 587 360 -6 c198 -4 716
-7 1151 -7 l791 0 6 -547 c10 -953 -17 -1293 -134 -1679 -93 -307 -180 -497
-335 -734 -86 -131 -156 -216 -285 -347 -351 -357 -801 -602 -1305 -712 -610
-133 -1368 -101 -1899 81 -493 169 -929 508 -1221 950 -65 98 -193 341 -242
458 -27 65 -97 280 -107 330 -4 19 -15 71 -25 115 -10 44 -27 141 -37 215 -17
125 -18 226 -17 1320 1 1423 4 1488 99 1870 15 58 27 115 28 127 1 12 4 20 6
17 8 -8 39 99 33 114 -3 10 -1 13 6 8 15 -9 15 -1 0 27 -10 20 -10 21 5 8 14
-11 17 -11 17 0 0 15 41 121 50 129 16 15 91 184 86 195 -3 8 0 12 8 9 11 -4
52 62 48 79 -1 4 2 7 7 7 8 0 30 30 83 115 7 11 15 22 18 25 3 3 24 30 46 60
23 30 53 67 68 81 18 18 24 33 20 45 -4 14 -3 15 4 6 7 -11 14 -7 34 15 25 29
138 136 198 188 110 95 148 125 158 125 6 0 9 7 6 15 -5 12 -10 13 -20 4 -7
-6 -19 -9 -26 -6 -8 4 -5 8 9 12 13 4 20 11 17 16 -3 5 0 9 5 9 6 0 11 7 11
15 0 16 12 20 23 8 4 -3 -1 -12 -11 -19 -13 -10 -14 -15 -5 -24 13 -14 37 -4
28 11 -3 5 0 6 8 3 8 -3 38 14 68 38 30 23 56 43 59 44 3 0 17 6 33 14 29 14
38 37 10 25 -10 -4 -26 -10 -35 -12 -10 -3 -18 -9 -18 -14 0 -5 -7 -9 -15 -9
-27 0 -16 20 21 35 20 8 56 17 81 19 24 2 46 6 49 9 8 8 -34 19 -46 12 -5 -3
-10 -1 -10 6 0 10 26 10 70 -2 9 -2 14 2 12 9 -1 8 2 11 8 7 17 -10 133 47
118 57 -9 6 -5 7 9 3 12 -3 35 0 50 8 69 35 355 123 463 144 31 5 39 13 14 13
-16 0 -17 2 -4 10 13 8 12 10 -2 10 -15 0 -18 9 -18 45 l0 45 40 0 c29 0 40
-4 40 -15z m880 0 c0 -11 -11 -15 -40 -15 -29 0 -40 4 -40 15 0 11 11 15 40
15 29 0 40 -4 40 -15z m-747 -27 c-5 -10 -42 -9 -68 1 -14 6 -6 8 26 7 26 0
45 -4 42 -8z m294 6 c-3 -3 -12 -4 -19 -1 -8 3 -5 6 6 6 11 1 17 -2 13 -5z
m706 -1 c-7 -2 -19 -2 -25 0 -7 3 -2 5 12 5 14 0 19 -2 13 -5z m240 -10 c-7
-2 -19 -2 -25 0 -7 3 -2 5 12 5 14 0 19 -2 13 -5z m-70 -10 c-7 -2 -21 -2 -30
0 -10 3 -4 5 12 5 17 0 24 -2 18 -5z m210 0 c-7 -2 -21 -2 -30 0 -10 3 -4 5
12 5 17 0 24 -2 18 -5z m-1713 -63 c-12 -8 -11 -10 8 -10 12 0 22 3 22 8 0 4
11 8 25 8 32 2 32 -4 -1 -16 -14 -6 -50 -7 -82 -3 -50 6 -53 8 -27 14 17 4 39
7 50 8 16 1 17 -1 5 -9z m1973 -7 c-7 -2 -19 -2 -25 0 -7 3 -2 5 12 5 14 0 19
-2 13 -5z m-2016 -29 c-3 -3 -12 -4 -19 -1 -8 3 -5 6 6 6 11 1 17 -2 13 -5z
m2040 0 c-3 -3 -12 -4 -19 -1 -8 3 -5 6 6 6 11 1 17 -2 13 -5z m-2262 -44
c-27 -12 -43 -12 -25 0 8 5 22 9 30 9 10 0 8 -3 -5 -9z m75 0 c-8 -5 -19 -10
-25 -10 -5 0 -3 5 5 10 8 5 20 10 25 10 6 0 3 -5 -5 -10z m2327 -6 c-3 -3 -12
-4 -19 -1 -8 3 -5 6 6 6 11 1 17 -2 13 -5z m-2380 -10 c-3 -3 -12 -4 -19 -1
-8 3 -5 6 6 6 11 1 17 -2 13 -5z m-82 -14 c3 -5 1 -10 -4 -10 -6 0 -11 5 -11
10 0 6 2 10 4 10 3 0 8 -4 11 -10z m45 0 c0 -5 -5 -10 -11 -10 -5 0 -7 5 -4
10 3 6 8 10 11 10 2 0 4 -4 4 -10z m-400 -25 c0 -11 -11 -15 -40 -15 -29 0
-40 4 -40 15 0 11 11 15 40 15 29 0 40 -4 40 -15z m174 -30 c-4 -8 -8 -15 -10
-15 -2 0 -4 7 -4 15 0 8 4 15 10 15 5 0 7 -7 4 -15z m95 2 c-2 -1 -13 -9 -24
-17 -19 -14 -19 -14 -6 3 7 9 18 17 24 17 6 0 8 -1 6 -3z m-72 -33 c-3 -3 -12
-4 -19 -1 -8 3 -5 6 6 6 11 1 17 -2 13 -5z m-249 -46 c-6 -18 -28 -21 -28 -4
0 9 7 16 16 16 9 0 14 -5 12 -12z m122 2 c0 -5 -17 -10 -37 -9 -34 1 -35 2
-13 9 36 11 50 11 50 0z m3110 -20 c0 -5 -2 -10 -4 -10 -3 0 -8 5 -11 10 -3 6
-1 10 4 10 6 0 11 -4 11 -10z m-3224 -68 c-2 -8 -10 -18 -19 -24 -13 -7 -15
-5 -11 6 3 9 -1 13 -12 13 -9 -1 -19 3 -21 10 -3 7 8 11 30 10 24 -1 34 -5 33
-15z m-176 -72 c0 -5 -4 -10 -10 -10 -5 0 -10 5 -10 10 0 6 5 10 10 10 6 0 10
-4 10 -10z m10 -54 c0 -8 -6 -16 -14 -19 -10 -4 -12 0 -9 14 6 22 23 26 23 5z
m-50 -32 c0 -9 -32 -33 -44 -34 -5 0 -1 9 10 19 19 20 34 26 34 15z m-133 -86
c-3 -8 -6 -5 -6 6 -1 11 2 17 5 13 3 -3 4 -12 1 -19z m47 8 c-10 -8 -21 -12
-24 -10 -5 6 21 24 34 24 6 0 1 -6 -10 -14z m-95 -75 c12 -8 12 -12 -2 -25
-20 -20 -23 -20 -31 0 -11 29 6 42 33 25z m-171 -181 c13 0 13 -3 4 -12 -10
-10 -15 -10 -22 2 -5 8 -9 20 -9 25 0 6 3 4 6 -2 2 -7 12 -13 21 -13z m-79
-110 c0 -8 -7 -24 -16 -35 l-16 -20 8 20 c10 26 10 44 1 75 l-7 25 15 -25 c9
-14 15 -32 15 -40z m36 41 c-3 -6 -11 -11 -17 -11 -6 0 -6 6 2 15 14 17 26 13
15 -4z m-115 -65 c0 -3 -4 -8 -10 -11 -5 -3 -10 -1 -10 4 0 6 5 11 10 11 6 0
10 -2 10 -4z m26 -41 c-11 -8 -16 -20 -12 -30 3 -9 2 -13 -4 -10 -21 13 -2 55
25 55 5 0 2 -7 -9 -15z m-33 -76 c-8 -8 -13 -7 -18 2 -5 8 -4 10 3 5 7 -4 12
-2 12 5 0 7 3 9 7 6 4 -4 2 -12 -4 -18z m-63 -49 c0 -5 -4 -10 -9 -10 -5 0
-12 -12 -15 -26 -4 -15 -9 -24 -12 -22 -7 7 17 68 27 68 5 0 9 -4 9 -10z m16
-22 c-9 -12 -16 -19 -16 -15 0 11 24 47 28 42 2 -2 -3 -14 -12 -27z m-42 -64
c3 -8 2 -12 -4 -9 -6 3 -10 10 -10 16 0 14 7 11 14 -7z m-47 -96 c-3 -8 -6 -5
-6 6 -1 11 2 17 5 13 3 -3 4 -12 1 -19z m-12 -38 c3 -5 1 -10 -4 -10 -6 0 -11
5 -11 10 0 6 2 10 4 10 3 0 8 -4 11 -10z m-62 -115 c-7 -21 -13 -19 -13 6 0
11 4 18 10 14 5 -3 7 -12 3 -20z m-28 -25 c3 -5 1 -10 -4 -10 -6 0 -11 5 -11
10 0 6 2 10 4 10 3 0 8 -4 11 -10z m-10 -100 c3 -5 1 -10 -4 -10 -6 0 -11 5
-11 10 0 6 2 10 4 10 3 0 8 -4 11 -10z m-115 -419 c0 -6 -4 -13 -10 -16 -5 -3
-10 1 -10 9 0 9 5 16 10 16 6 0 10 -4 10 -9z m-43 -93 c-3 -8 -6 -5 -6 6 -1
11 2 17 5 13 3 -3 4 -12 1 -19z"/>
<path d="M3130 8060 c0 -5 5 -10 10 -10 6 0 10 5 10 10 0 6 -4 10 -10 10 -5 0
-10 -4 -10 -10z"/>
</g>
</svg>
